<?xml version="1.0" encoding="UTF-8"?>
<svg width="115px" height="115px" viewBox="0 0 115 115" version="1.1" xmlns="http://www.w3.org/2000/svg" xmlns:xlink="http://www.w3.org/1999/xlink">
    <!-- Generator: Sketch 53.2 (72643) - https://sketchapp.com -->
    <title>b2b_videobot_icon</title>
    <desc>Created with Sketch.</desc>
    <defs>
        <linearGradient x1="50%" y1="43.5267857%" x2="50%" y2="100%" id="linearGradient-1">
            <stop stop-color="#FFFFFF" offset="0%"></stop>
            <stop stop-color="#E4E4E4" offset="100%"></stop>
        </linearGradient>
        <circle id="path-2" cx="45.5" cy="45.5" r="45.5"></circle>
        <filter x="-22.0%" y="-17.6%" width="144.0%" height="144.0%" filterUnits="objectBoundingBox" id="filter-3">
            <feOffset dx="0" dy="4" in="SourceAlpha" result="shadowOffsetOuter1"></feOffset>
            <feGaussianBlur stdDeviation="6" in="shadowOffsetOuter1" result="shadowBlurOuter1"></feGaussianBlur>
            <feColorMatrix values="0 0 0 0 0   0 0 0 0 0   0 0 0 0 0  0 0 0 0.14300153 0" type="matrix" in="shadowBlurOuter1"></feColorMatrix>
        </filter>
        <polygon id="path-4" points="0.0266022124 0.202738095 5.58304469 0.202738095 5.58304469 5.69258135 0.0266022124 5.69258135"></polygon>
        <polygon id="path-6" points="0.0604097345 0.114111111 11.431746 0.114111111 11.431746 11.3492063 0.0604097345 11.3492063"></polygon>
    </defs>
    <g id="Page-1" stroke="none" stroke-width="1" fill="none" fill-rule="evenodd">
        <g id="B2B-Main-Copy" transform="translate(-1298.000000, -891.000000)">
            <g id="Group-10" transform="translate(1137.000000, 772.000000)">
                <g id="b2b_videobot_icon" transform="translate(173.000000, 127.000000)">
                    <g id="Oval">
                        <use fill="black" fill-opacity="1" filter="url(#filter-3)" xlink:href="#path-2"></use>
                        <use fill="url(#linearGradient-1)" fill-rule="evenodd" xlink:href="#path-2"></use>
                    </g>
                    <g id="Group-21-Copy" transform="translate(17.000000, 15.000000)">
                        <path d="M30.6224358,14.7726944 L29.5155332,14.0865833 C32.2044712,9.85900397 31.0505774,7.05523413 30.0507102,5.70106746 C30.4919049,5.62368651 30.8991615,5.44055159 31.238542,5.17745635 C32.4133208,6.91336905 33.543719,10.1736865 30.6224358,14.7726944" id="Fill-1" fill="#022850"></path>
                        <path d="M55.5060513,27.3052877 L51.8511841,27.3052877 C51.8511841,20.4013591 46.1665602,14.7847917 39.1789761,14.7847917 L19.042485,14.7847917 C12.0551619,14.7847917 6.37053805,20.4013591 6.37053805,27.3052877 L2.7156708,27.3052877 C2.7156708,18.4103472 10.0397637,11.1736806 19.042485,11.1736806 L39.1789761,11.1736806 C48.1816973,11.1736806 55.5060513,18.4103472 55.5060513,27.3052877" id="Fill-3-Copy" fill="#FF3800"></path>
                        <path d="M4.6845584,41.1850043 C6.52292143,51.2862977 12.9104598,57.4190741 23.8471735,59.5833333" id="Path-9" stroke="#1BD7FF" stroke-width="2.87999975"></path>
                        <path d="M26.0295124,57.7260864 C24.7129979,57.7731525 23.6538465,58.8300625 23.6030654,60.1455147 L23.6045373,60.1570188 L23.6045597,60.2715224 C23.6048326,61.6628931 24.7326927,62.790754 26.1257648,62.791029 L29.7158971,62.7951302 C29.7163923,62.7951302 29.7163923,62.7951302 29.7168874,62.7951302 C31.0753469,62.7948638 32.1825388,61.7197451 32.2344868,60.3740661 L32.2330149,60.362562 L32.2329925,60.2480584 C32.2327196,58.8566877 31.1048595,57.7288268 29.7126379,57.7285525 L26.0295124,57.7260864 Z" id="Rectangle" stroke="#1BD7FF" stroke-width="3.59999969" transform="translate(27.918776, 60.259790) rotate(3.000000) translate(-27.918776, -60.259790) "></path>
                        <path d="M35.7814637,52.0913611 L21.9457027,52.0913611 C12.0616363,52.0913611 4.04860088,44.1747738 4.04860088,34.4085238 C4.04860088,24.6427897 12.0616363,16.7259444 21.9457027,16.7259444 L35.7814637,16.7259444 C45.6657912,16.7259444 53.6785655,24.6427897 53.6785655,34.4085238 C53.6785655,44.1747738 45.6657912,52.0913611 35.7814637,52.0913611" id="Fill-5" fill="#022850"></path>
                        <path d="M5.71294912,42.6850099 L4.57550221,42.6850099 C2.04842257,42.6850099 0.000130530973,40.6609821 0.000130530973,38.1644147 L0.000130530973,30.6533036 C0.000130530973,28.1564782 2.04842257,26.1321925 4.57550221,26.1321925 L5.71294912,26.1321925 C8.24002876,26.1321925 10.2885819,28.1564782 10.2885819,30.6533036 L10.2885819,38.1644147 C10.2885819,40.6609821 8.24002876,42.6850099 5.71294912,42.6850099" id="Fill-9" fill="#FF3800"></path>
                        <path d="M54.1682394,42.6850099 L53.0307925,42.6850099 C50.5037128,42.6850099 48.4551597,40.6609821 48.4551597,38.1644147 L48.4551597,30.6533036 C48.4551597,28.1564782 50.5037128,26.1321925 53.0307925,26.1321925 L54.1682394,26.1321925 C56.695319,26.1321925 58.7436111,28.1564782 58.7436111,30.6533036 L58.7436111,38.1644147 C58.7436111,40.6609821 56.695319,42.6850099 54.1682394,42.6850099" id="Fill-11" fill="#FF3800"></path>
                        <path d="M25.2434227,28.8727448 L25.2434227,38.9130309 C25.2434227,40.0574502 26.4964507,40.7674411 27.4876959,40.1845847 L36.0258928,35.1645461 C36.9988595,34.5921277 36.9988595,33.1932305 36.0258928,32.6212296 L27.4876959,27.6009822 C26.4964507,27.0181258 25.2434227,27.7283255 25.2434227,28.8727448" id="Fill-13" fill="#FFFFFF"></path>
                        <g id="Group-17" transform="translate(26.889381, 0.055198)">
                            <mask id="mask-5" fill="white">
                                <use xlink:href="#path-4"></use>
                            </mask>
                            <g id="Clip-16"></g>
                            <path d="M5.58304469,2.94762103 C5.58304469,4.46351389 4.33908451,5.69258135 2.80482345,5.69258135 C1.27056239,5.69258135 0.0266022124,4.46351389 0.0266022124,2.94762103 C0.0266022124,1.43172817 1.27056239,0.202660714 2.80482345,0.202660714 C4.33908451,0.202660714 5.58304469,1.43172817 5.58304469,2.94762103" id="Fill-15" fill="#000000" mask="url(#mask-5)"></path>
                        </g>
                        <g id="Group-20" transform="translate(15.141593, 46.225833)">
                            <mask id="mask-7" fill="white">
                                <use xlink:href="#path-6"></use>
                            </mask>
                            <g id="Clip-19"></g>
                        </g>
                    </g>
                </g>
            </g>
        </g>
    </g>
</svg>