<?xml version="1.0" encoding="UTF-8"?>
<svg width="27px" height="25px" viewBox="0 0 27 25" version="1.1" xmlns="http://www.w3.org/2000/svg" xmlns:xlink="http://www.w3.org/1999/xlink">
    <!-- Generator: Sketch 53.2 (72643) - https://sketchapp.com -->
    <title>call</title>
    <desc>Created with Sketch.</desc>
    <g id="Page-1" stroke="none" stroke-width="1" fill="none" fill-rule="evenodd">
        <g id="No_Answer2" transform="translate(-705.000000, -810.000000)">
            <g id="Group-33" transform="translate(512.000000, 743.000000)">
                <g id="Group-32" transform="translate(0.000000, 44.000000)">
                    <g id="Group-30" transform="translate(140.000000, 1.000000)">
                        <g id="call" transform="translate(53.000000, 22.999982)">
                            <g id="communications-(1)" transform="translate(0.000000, 0.000018)" fill-rule="nonzero">
                                <path d="M23.381625,17.708625 L20.3988281,14.7251719 C19.6029844,13.9293281 18.2125313,13.9279687 17.415375,14.7251719 L15.8826094,16.1756719 L21.8490469,22.1417812 L23.381625,20.6914687 C24.2075156,19.8655312 24.20475,18.5303438 23.381625,17.708625 Z" id="Path" fill="#6D727D"></path>
                                <path d="M15.8960625,16.1892188 C15.2684062,16.6754531 14.373,16.6560469 13.7994844,16.0812656 L7.9018125,10.1795156 C7.32698438,9.6046875 7.307625,8.708625 7.79385938,8.08251562 L1.84115625,2.13014062 C-0.719671875,5.11514062 -0.619546875,9.6129375 2.20678125,12.4392656 L11.5397344,21.7762969 C14.2519219,24.4883906 18.6945,24.8481094 21.8490469,22.1417813 L15.8960625,16.1892188 Z" id="Path" fill="#E4DFDF"></path>
                                <path d="M9.25795313,3.58082813 L6.27515625,0.597375 C5.4793125,-0.19846875 4.08885938,-0.199828125 3.29170313,0.597375 L1.82742188,2.11640625 L7.79385938,8.08251562 L9.25795313,6.563625 C10.0837969,5.73778125 10.0810781,4.40259375 9.25795313,3.58082813 Z" id="Path" fill="#6D727D"></path>
                            </g>
                            <path d="M18,4.54747351e-13 C22.9794922,0.304536531 25.4692383,2.9987143 25.4692383,8.08253331" id="Path-6" stroke="#6D727D" stroke-width="2" stroke-linecap="round"></path>
                            <path d="M17,4.00001769 C20.0511068,4.027517 21.5203857,5.60787996 21.4078369,8.74110655" id="Path-6-Copy" stroke="#6D727D" stroke-width="2" stroke-linecap="round"></path>
                        </g>
                    </g>
                </g>
            </g>
        </g>
    </g>
</svg>